# xmcd
#
# Track frame offsets:
#	150
#	2480
#	18637
#	39017
#	59662
#	77035
#	98705
#	116235
#	133377
#	156527
#	177380
#	197115
#
# Disc length: 2845 seconds
#
# Revision: 9
# Processed by: cddbd v1.5.1PL0 Copyright (c) Steve Scherf et al.
# Submitted via: audiograbber 1.82.01
#
DISCID=a40b1b0c
DTITLE=張惠妹 - 真實
DYEAR=2001
DGENRE=Chinese
TTITLE0=Opening
TTITLE1=感應
TTITLE2=我恨我愛你
TTITLE3=真實
TTITLE4=了不起
TTITLE5=記得
TTITLE6=永遠的畫面
TTITLE7=A級娛樂
TTITLE8=女人說
TTITLE9=因為你沒說
TTITLE10=瞬間
TTITLE11=排山倒海
EXTD=
EXTT0=
EXTT1=
EXTT2=
EXTT3=
EXTT4=
EXTT5=
EXTT6=
EXTT7=
EXTT8=
EXTT9=
EXTT10=
EXTT11=
PLAYORDER=
